<?xml version="1.0" encoding="UTF-8"?>
<svg width="209px" height="21px" viewBox="0 0 209 21" version="1.1" xmlns="http://www.w3.org/2000/svg" xmlns:xlink="http://www.w3.org/1999/xlink">
    <!-- Generator: Sketch 48.2 (47327) - http://www.bohemiancoding.com/sketch -->
    <title>Group</title>
    <desc>Created with Sketch.</desc>
    <defs></defs>
    <g id="Nav-/-1440px-/-Logged-Out-/-Home-Page" stroke="none" stroke-width="1" fill="none" fill-rule="evenodd" transform="translate(-51.000000, -41.000000)">
        <g fill="#4267B2" id="Logo">
            <g transform="translate(51.000000, 39.000000)">
                <g id="Letterforms" transform="translate(0.000000, 2.415873)">
                    <g id="Group">
                        <path d="M6.18102677,2.49778634 C5.25127323,2.49778634 4.98150018,2.91152293 4.98150018,3.82129854 L4.98150018,5.33073268 L7.46263404,5.33073268 L7.21490975,7.77200098 L4.98150018,7.77200098 L4.98150018,15.1760693 L2.00473245,15.1760693 L2.00473245,7.77200098 L-3.70567376e-05,7.77200098 L-3.70567376e-05,5.33073268 L2.00473245,5.33073268 L2.00473245,3.86226439 C2.00473245,1.40190341 2.99729716,0.0991521951 5.76747358,0.0991521951 C6.36723688,0.0991521951 7.06964734,0.140118049 7.50376702,0.201844878 L7.50376702,2.49778634" id="Fill-2"></path>
                        <path d="M10.6462895,10.6048176 C10.6462895,12.0734712 11.1843534,13.0447883 12.5687931,13.0447883 C13.7887009,13.0447883 14.4090307,12.1555883 14.4090307,10.749959 L14.4090307,9.75695415 C14.4090307,8.35002732 13.7887009,7.46101268 12.5687931,7.46101268 C11.1843534,7.46101268 10.6462895,8.43344195 10.6462895,9.90209561 L10.6462895,10.6048176 Z M7.66952181,9.94324683 C7.66952181,7.19241756 8.97169557,5.12410537 11.7005537,5.12410537 C13.1891229,5.12410537 14.0983099,5.88966634 14.5324296,6.8404078 L14.5324296,5.33078829 L17.3859837,5.33078829 L17.3859837,15.1748273 L14.5324296,15.1748273 L14.5324296,13.687081 C14.1188764,14.6378224 13.1891229,15.381881 11.7005537,15.381881 C8.97169557,15.381881 7.66952181,13.3144956 7.66952181,10.5636663 L7.66952181,9.94324683 Z" id="Fill-5"></path>
                        <path d="M23.5862985,5.12386439 C24.7433951,5.12386439 25.8400893,5.3718839 26.4385556,5.78562049 L25.7772781,7.89526927 C25.3225919,7.66782537 24.5788632,7.44038146 23.7930751,7.44038146 C22.1799953,7.44038146 21.4775848,8.37073268 21.4775848,9.96376683 L21.4775848,10.5419229 C21.4775848,12.1349571 22.1799953,13.0653083 23.7930751,13.0653083 C24.5788632,13.0653083 25.3225919,12.8378644 25.7772781,12.6106059 L26.4385556,14.7202546 C25.8400893,15.1338059 24.7433951,15.3818254 23.5862985,15.3818254 C20.0931451,15.3818254 18.5006318,13.4996205 18.5006318,10.4801961 L18.5006318,10.0253083 C18.5006318,7.00606927 20.0931451,5.12386439 23.5862985,5.12386439" id="Fill-7"></path>
                        <path d="M29.8084027,9.34329171 L33.4055002,9.34329171 L33.4055002,9.0952722 C33.4055002,8.01977951 32.9713805,7.1719161 31.6692067,7.1719161 C30.324603,7.1719161 29.8084027,8.01977951 29.8084027,9.34329171 M26.8316349,10.6254673 L26.8316349,9.75684293 C26.8316349,6.9650478 28.422666,5.12399415 31.6692067,5.12399415 C34.7282404,5.12399415 36.0715472,6.98562341 36.0715472,9.71587707 L36.0715472,11.2872234 L29.8084027,11.2872234 C29.8701021,12.632238 30.4696801,13.2311551 32.1238929,13.2311551 C33.2398566,13.2311551 34.4188167,13.0035259 35.2868707,12.632238 L35.8236376,14.6790478 C35.0389612,15.0927844 33.4260667,15.4025307 31.9993823,15.4025307 C28.2377528,15.4025307 26.8316349,13.521438 26.8316349,10.6254673" id="Fill-9"></path>
                        <path d="M44.1340557,9.8802039 C44.1340557,8.49385268 43.5959918,7.46099415 42.1704191,7.46099415 C40.9503261,7.46099415 40.2890486,8.32961854 40.2890486,9.7352478 L40.2890486,10.7694039 C40.2890486,12.1763307 40.9503261,13.0447698 42.1704191,13.0447698 C43.5959918,13.0447698 44.1340557,12.0104283 44.1340557,10.6242624 L44.1340557,9.8802039 Z M47.1108234,10.5625356 C47.1108234,13.3133649 45.7880832,15.3818624 43.0590397,15.3818624 C41.5706559,15.3818624 40.5369582,14.6366917 40.123405,13.6859502 L40.123405,15.1748088 L37.3122809,15.1748088 L37.3122809,0.386877073 L40.2890486,0.118467317 L40.2890486,6.6952478 C40.7231683,5.82680878 41.6734883,5.12408683 43.0590397,5.12408683 C45.7880832,5.12408683 47.1108234,7.19128683 47.1108234,9.94193073 L47.1108234,10.5625356 Z" id="Fill-11"></path>
                        <path d="M54.9241254,9.79801268 C54.9241254,8.49526146 54.3862468,7.46110537 53.0016218,7.46110537 C51.6160704,7.46110537 51.0791183,8.49526146 51.0791183,9.79801268 L51.0791183,10.7076029 C51.0791183,12.0105395 51.6160704,13.044881 53.0016218,13.044881 C54.3862468,13.044881 54.9241254,12.0105395 54.9241254,10.7076029 L54.9241254,9.79801268 Z M48.1023505,10.50092 L48.1023505,10.004881 C48.1023505,7.17193463 49.7141333,5.12401268 53.0016218,5.12401268 C56.2879986,5.12401268 57.9008931,7.17193463 57.9008931,10.004881 L57.9008931,10.50092 C57.9008931,13.3349785 56.2879986,15.3817883 53.0016218,15.3817883 C49.7141333,15.3817883 48.1023505,13.3349785 48.1023505,10.50092 Z" id="Fill-13"></path>
                        <path d="M65.7143618,9.79801268 C65.7143618,8.49526146 65.176298,7.46110537 63.7918582,7.46110537 C62.4063068,7.46110537 61.8693547,8.49526146 61.8693547,9.79801268 L61.8693547,10.7076029 C61.8693547,12.0105395 62.4063068,13.044881 63.7918582,13.044881 C65.176298,13.044881 65.7143618,12.0105395 65.7143618,10.7076029 L65.7143618,9.79801268 Z M58.892587,10.50092 L58.892587,10.004881 C58.892587,7.17193463 60.5043698,5.12401268 63.7918582,5.12401268 C67.078235,5.12401268 68.6911295,7.17193463 68.6911295,10.004881 L68.6911295,10.50092 C68.6911295,13.3349785 67.078235,15.3817883 63.7918582,15.3817883 C60.5043698,15.3817883 58.892587,13.3349785 58.892587,10.50092 Z" id="Fill-15"></path>
                        <polyline id="Fill-17" points="72.7828233 10.0253824 75.7186434 5.33080683 78.8816212 5.33080683 75.800724 10.1912849 79.0050201 15.1748459 75.843154 15.1748459 72.7828233 10.357002 72.7828233 15.1748459 69.8060556 15.1748459 69.8060556 0.388211707 72.7828233 0.11850439"></polyline>
                        <path d="M92.1272371,0.883435122 C92.0696138,1.09938634 92.0121759,1.30106439 91.9545527,1.48809854 L91.8683957,1.79024488 C91.2927193,1.51683024 90.7893035,1.38021561 90.3575926,1.38021561 C89.2646041,1.38021561 88.7180172,2.15004 88.7180172,3.69005951 L88.7180172,5.33073268 L91.8252246,5.33073268 L91.7603754,6.51800098 L88.7180172,6.51800098 L88.7180172,15.1749571 L87.4013913,15.1749571 L87.4013913,6.56119122 L85.8048018,6.45330829 L85.8909587,5.61137659 L87.3798984,5.26604 L87.4013913,3.71174732 C87.4447477,1.33684 88.4373124,0.149571707 90.3792707,0.149571707 C90.9834809,0.149571707 91.5878762,0.29341561 92.1919011,0.58128878 L92.1272371,0.883435122 Z" id="Fill-19"></path>
                        <path d="M100.250945,7.32760488 C99.6109749,6.5865122 98.7655254,6.21578049 97.7153375,6.21578049 C96.679787,6.21578049 95.8417488,6.5865122 95.2015937,7.32760488 C94.5614386,8.06888293 94.2412684,9.02963415 94.2412684,10.2096732 C94.2412684,11.4186293 94.5614386,12.3934683 95.2015937,13.1347463 C95.8417488,13.875839 96.687013,14.2465707 97.737201,14.2465707 C98.7727515,14.2465707 99.6109749,13.875839 100.250945,13.1347463 C100.891285,12.3934683 101.21127,11.4329024 101.21127,10.2528634 C101.21127,9.04390732 100.891285,8.06888293 100.250945,7.32760488 M101.146606,13.9981805 C100.225931,14.9698683 99.0677231,15.4557122 97.6723517,15.4557122 C96.2769802,15.4557122 95.1334093,14.9806195 94.2412684,14.0306195 C93.349498,13.0808049 92.9035201,11.8214293 92.9035201,10.2528634 C92.9035201,8.69838537 93.3674705,7.4354878 94.2951859,6.46417073 C95.2230866,5.49266829 96.3848153,5.00682439 97.7803721,5.00682439 C99.1757435,5.00682439 100.315794,5.48173171 101.200524,6.43173171 C102.085068,7.38154634 102.527525,8.64092195 102.527525,10.2096732 C102.527525,11.7641512 102.067281,13.0268634 101.146606,13.9981805" id="Fill-21"></path>
                        <path d="M106.346315,15.1748829 L105.008381,15.1748829 L105.008381,5.28746829 L106.346315,5.00682439 L106.346315,7.12259024 C107.065586,5.7119561 108.036658,5.00682439 109.259345,5.00682439 C109.878193,5.00682439 110.453498,5.15789756 110.985818,5.46041463 L110.640635,6.71256098 C110.165753,6.42450244 109.662152,6.28065854 109.130017,6.28065854 C108.022206,6.28065854 107.094305,7.12981951 106.346315,8.8279561 L106.346315,15.1748829 Z" id="Fill-23"></path>
                        <path d="M121.795788,6.28058439 C120.7456,6.28058439 119.907932,6.65483805 119.282044,7.40334537 C118.656155,8.15166732 118.343211,9.11594049 118.343211,10.2959795 C118.343211,11.4474722 118.641703,12.3902429 119.238687,13.1241063 C119.835671,13.8581551 120.630538,14.2248088 121.623288,14.2248088 C122.601401,14.2248088 123.478905,13.8581551 124.255799,13.1241063 L124.255799,13.1024185 L124.255799,13.0811015 L124.255799,13.0592283 L124.255799,13.0377259 L124.255799,13.016038 L124.255799,12.9945356 L124.255799,12.9730332 L124.255799,12.9513454 L124.255799,12.9298429 L124.255799,12.9081551 L124.255799,12.8866527 L124.255799,12.8649649 L124.255799,12.8434624 L124.255799,12.8217746 L124.255799,12.8002722 L124.255799,12.7787698 L124.255799,12.7568966 L124.255799,12.7355795 L124.255799,12.7138917 L124.255799,12.6923893 L124.255799,12.6707015 L124.255799,12.6490137 L124.255799,12.6273259 L124.255799,12.6060088 L124.255799,12.5845063 L124.255799,12.5628185 L124.255799,12.5411307 L124.255799,12.5194429 L124.255799,12.4981259 L124.255799,12.476438 L124.255799,12.4549356 L124.255799,12.4330624 L124.255799,12.41156 L124.255799,12.3902429 L124.255799,12.3685551 L124.255799,12.3470527 L124.255799,12.3251795 L124.255799,12.3036771 L124.255799,12.2819893 L124.255799,12.2606722 L124.255799,12.2389844 L124.255799,12.2172966 L124.255799,12.1957941 L124.255799,12.1741063 L124.255799,12.1527893 L124.255799,12.1311015 L124.255799,12.1094137 L124.255799,12.0877259 L124.255799,12.0662234 L124.255799,12.044721 L124.255799,12.0230332 L124.255799,12.0015307 L124.255799,11.9798429 L124.255799,11.9583405 L124.255799,11.9366527 L124.255799,11.9151502 L124.255799,11.8934624 L124.255799,11.8502722 L124.255799,11.8287698 L124.255799,11.8072673 L124.255799,11.7855795 L124.255799,11.7640771 L124.255799,11.7423893 L124.255799,11.7208868 L124.255799,11.699199 L124.255799,11.6560088 L124.255799,11.6345063 L124.255799,11.6130039 L124.255799,11.5911307 L124.255799,11.5698137 L124.255799,11.5266234 L124.255799,11.5049356 L124.255799,11.4832478 L124.255799,11.4617454 L124.255799,11.4402429 L124.255799,11.3970527 L124.255799,11.3753649 L124.255799,11.3538624 L124.255799,11.33236 L124.255799,11.2891698 L124.255799,11.2672966 L124.255799,11.2457941 L124.255799,11.2244771 L124.255799,11.1811015 L124.255799,11.1594137 L124.255799,11.1379112 L124.255799,11.0949063 L124.255799,11.0730332 L124.255799,11.0515307 L124.255799,11.0085259 L124.255799,10.9870234 L124.255799,10.9651502 L124.255799,10.92196 L124.255799,10.9004576 L124.255799,10.8789551 L124.255799,10.8357649 L124.255799,10.8140771 L124.255799,10.7925746 L124.255799,10.7493844 L124.255799,10.7276966 L124.255799,10.7061941 L124.255799,10.6631893 L124.255799,10.6415015 L124.255799,10.5983112 L124.255799,10.5766234 L124.255799,10.555121 L124.255799,10.5119307 L124.255799,10.4902429 L124.255799,10.447238 L124.255799,10.4255502 L124.255799,10.38236 L124.255799,10.3608576 L124.255799,10.3176673 L124.255799,10.2959795 L124.255799,10.2744771 L124.255799,10.2311015 L124.255799,10.209599 L124.255799,10.1665941 L124.255799,10.1449063 L124.255799,10.1015307 L124.255799,10.0802137 L124.255799,10.0370234 L124.255799,10.0153356 L124.255799,9.97233073 L124.255799,9.95064293 L124.255799,9.90726732 L124.255799,9.88576488 L124.255799,9.84276 L124.255799,9.79938439 L124.255799,9.77788195 L124.255799,9.73487707 L124.255799,9.71318927 L124.255799,9.66981366 L124.255799,9.64831122 L124.255799,9.60530634 L124.255799,9.58361854 L124.255799,9.54042829 L124.255799,9.49742341 L124.255799,9.47555024 L124.255799,9.43254537 L124.255799,9.41085756 L124.255799,9.36766732 L124.255799,9.32447707 L124.255799,9.30297463 L124.255799,9.25978439 L124.255799,9.23828195 L124.255799,9.19509171 L124.255799,9.15190146 L124.255799,9.13021366 L124.255799,9.08702341 L124.255799,9.04401854 L124.255799,9.02233073 L124.255799,8.97914049 L124.255799,8.93595024 L124.255799,8.9144478 L124.255799,8.87125756 L124.255799,8.82788195 L124.255799,8.80656488 L124.255799,8.76337463 L124.255799,8.71999902 L124.255799,8.69849659 L124.255799,8.65549171 L124.255799,8.6121161 L124.255799,8.59061366 L124.255799,8.54742341 L124.255799,8.5040478 L124.255799,8.46122829 L124.255799,8.43935512 L124.255799,8.39616488 L124.255799,8.35316 L124.255799,8.30978439 L124.255799,8.28828195 L124.255799,8.24527707 L124.255799,8.20190146 L124.255799,8.15871122 L124.255799,8.13720878 L124.255799,8.09401854 L124.255799,8.05082829 L124.255799,8.00763805 L124.255799,7.98613561 L124.255799,7.94294537 L124.255799,7.89975512 L124.255799,7.85656488 L124.255799,7.81337463 L124.255799,7.79168683 L124.255799,7.74868195 L124.255799,7.70549171 L124.255799,7.66230146 L124.255799,7.61911122 L124.255799,7.59742341 L124.255799,7.55441854 L124.255799,7.51122829 L124.255799,7.46785268 L124.255799,7.4248478 L124.255799,7.3814722 L124.255799,7.33828195 L124.255799,7.31696488 L124.255799,7.27358927 L124.255799,7.23039902 L124.255799,7.03613561 C123.608233,6.53231122 122.788352,6.28058439 121.795788,6.28058439 Z M124.255799,0.624516098 L125.593547,0.343872195 L125.593547,15.1748088 L124.255799,15.1748088 L124.255799,14.246682 C123.392562,15.0524673 122.436128,15.455638 121.38594,15.455638 C120.062459,15.455638 118.994298,14.9770234 118.181459,14.0199795 C117.368619,13.0629356 116.962107,11.8287698 116.962107,10.3176673 C116.962107,8.79210634 117.422537,7.53625268 118.343211,6.55047707 C119.263886,5.56470146 120.436361,5.07181366 121.860637,5.07181366 C122.680332,5.07181366 123.478905,5.25143317 124.255799,5.61141366 L124.255799,0.624516098 Z" id="Fill-25"></path>
                        <path d="M134.979871,9.1950361 C134.994323,9.12311415 135.001549,8.97908488 135.001549,8.76331902 C135.001549,7.98626537 134.796625,7.36732878 134.386407,6.90669463 C133.97656,6.44606049 133.390322,6.2158361 132.62788,6.2158361 C131.779095,6.2158361 131.074276,6.50018732 130.513237,7.06851902 C129.952013,7.63722146 129.614055,8.35291902 129.498994,9.21653854 L134.979871,9.1950361 Z M129.412466,10.3823044 C129.441185,11.50488 129.768582,12.422441 130.39447,13.134802 C131.020173,13.8473483 131.843759,14.2034361 132.865043,14.2034361 C133.944135,14.2034361 134.900755,13.9300215 135.735087,13.3831922 L135.994114,14.6134654 C135.087706,15.1749385 134.030292,15.4555824 132.822057,15.4555824 C131.412233,15.4555824 130.264957,14.9769678 129.380227,14.0199239 C128.495498,13.06288 128.05304,11.8287141 128.05304,10.3176117 C128.05304,8.76331902 128.495498,7.48967024 129.380227,6.49648 C130.264957,5.50347512 131.376288,5.00688 132.714037,5.00688 C133.807396,5.00688 134.681564,5.33794341 135.335986,6.00007024 C135.990408,6.66201171 136.317804,7.54713366 136.317804,8.6554361 C136.317804,9.23099707 136.245914,9.75613854 136.101949,10.2312312 L129.412466,10.2744215 L129.412466,10.3823044 Z" id="Fill-27"></path>
                        <polygon id="Fill-29" points="142.574705 15.1964224 141.36647 15.1964224 137.460319 5.28750537 138.906273 5.28750537 142.035344 13.447681 145.056209 5.28750537 146.458807 5.28750537"></polygon>
                        <path d="M154.270015,9.1950361 C154.284467,9.12311415 154.291693,8.97908488 154.291693,8.76331902 C154.291693,7.98626537 154.086769,7.36732878 153.676551,6.90669463 C153.266704,6.44606049 152.680466,6.2158361 151.918024,6.2158361 C151.069239,6.2158361 150.364235,6.50018732 149.803381,7.06851902 C149.242157,7.63722146 148.904199,8.35291902 148.789138,9.21653854 L154.270015,9.1950361 Z M148.702611,10.3823044 C148.73133,11.50488 149.058726,12.422441 149.684614,13.134802 C150.310317,13.8473483 151.133903,14.2034361 152.155187,14.2034361 C153.234279,14.2034361 154.190899,13.9300215 155.025231,13.3831922 L155.284258,14.6134654 C154.37785,15.1749385 153.320436,15.4555824 152.112201,15.4555824 C150.702377,15.4555824 149.555101,14.9769678 148.670371,14.0199239 C147.785642,13.06288 147.343184,11.8287141 147.343184,10.3176117 C147.343184,8.76331902 147.785642,7.48967024 148.670371,6.49648 C149.555101,5.50347512 150.666432,5.00688 152.004181,5.00688 C153.09754,5.00688 153.971708,5.33794341 154.62613,6.00007024 C155.280552,6.66201171 155.607948,7.54713366 155.607948,8.6554361 C155.607948,9.23099707 155.536058,9.75613854 155.392093,10.2312312 L148.702611,10.2744215 L148.702611,10.3823044 Z" id="Fill-31"></path>
                        <polygon id="Fill-33" points="158.131827 15.1748829 158.131827 0.624590244 159.469761 0.343760976 159.469761 15.1748829"></polygon>
                        <path d="M169.2769,7.32760488 C168.636931,6.5865122 167.791481,6.21578049 166.741293,6.21578049 C165.705743,6.21578049 164.86789,6.5865122 164.227549,7.32760488 C163.587394,8.06888293 163.267224,9.02963415 163.267224,10.2096732 C163.267224,11.4186293 163.587394,12.3934683 164.227549,13.1347463 C164.86789,13.875839 165.712969,14.2465707 166.763157,14.2465707 C167.798707,14.2465707 168.636931,13.875839 169.2769,13.1347463 C169.917241,12.3934683 170.237226,11.4329024 170.237226,10.2528634 C170.237226,9.04390732 169.917241,8.06888293 169.2769,7.32760488 M170.172562,13.9981805 C169.251887,14.9698683 168.093864,15.4557122 166.698307,15.4557122 C165.302936,15.4557122 164.159365,14.9806195 163.267224,14.0306195 C162.375454,13.0808049 161.929476,11.8214293 161.929476,10.2528634 C161.929476,8.69838537 162.393426,7.4354878 163.321142,6.46417073 C164.249042,5.49266829 165.410956,5.00682439 166.806328,5.00682439 C168.201699,5.00682439 169.341935,5.48173171 170.226479,6.43173171 C171.111024,7.38154634 171.553481,8.64092195 171.553481,10.2096732 C171.553481,11.7641512 171.093236,13.0268634 170.172562,13.9981805" id="Fill-35"></path>
                        <path d="M175.372271,7.42482927 L175.372271,7.44633171 L175.372271,7.46783415 L175.372271,7.48970732 L175.372271,7.51120976 L175.372271,7.5327122 L175.372271,7.55421463 L175.372271,7.57571707 L175.372271,7.59759024 L175.372271,7.61909268 L175.372271,7.64078049 L175.372271,7.66209756 L175.372271,7.68378537 L175.372271,7.70547317 L175.372271,7.72697561 L175.372271,7.74866341 L175.372271,7.77016585 L175.372271,7.79166829 L175.372271,7.8133561 L175.372271,7.8350439 L175.372271,7.85654634 L175.372271,7.87823415 L175.372271,7.89973659 L175.372271,7.92123902 L175.372271,7.94292683 L175.372271,7.96442927 L175.372271,7.98611707 L175.372271,8.00761951 L175.372271,8.02930732 L175.372271,8.05080976 L175.372271,8.07249756 L175.372271,8.094 L175.372271,8.1156878 L175.372271,8.13719024 L175.372271,8.15869268 L175.372271,8.18038049 L175.372271,8.20188293 L175.372271,8.2237561 L175.372271,8.24507317 L175.372271,8.26676098 L175.372271,8.28826341 L175.372271,8.30976585 L175.372271,8.33163902 L175.372271,8.3529561 L175.372271,8.3746439 L175.372271,8.39614634 L175.372271,8.41783415 L175.372271,8.43952195 L175.372271,8.46120976 L175.372271,8.50402927 L175.372271,8.52571707 L175.372271,8.54740488 L175.372271,8.56909268 L175.372271,8.59040976 L175.372271,8.61209756 L175.372271,8.6336 L175.372271,8.65547317 L175.372271,8.67697561 L175.372271,8.69829268 L175.372271,8.71998049 L175.372271,8.7633561 L175.372271,8.78485854 L175.372271,8.80654634 L175.372271,8.82786341 L175.372271,8.84973659 L175.372271,8.87123902 L175.372271,8.91442927 L175.372271,8.93574634 L175.372271,8.95761951 L175.372271,8.97912195 L175.372271,9.00080976 L175.372271,9.04381463 L175.372271,9.06550244 L175.372271,9.08700488 L175.372271,9.10869268 L175.372271,9.13019512 L175.372271,9.17338537 L175.372271,9.19507317 L175.372271,9.21657561 L175.372271,9.23826341 L175.372271,9.28126829 L175.372271,9.3029561 L175.372271,9.32445854 L175.372271,9.36764878 L175.372271,9.38933659 L175.372271,9.41083902 L175.372271,9.43252683 L175.372271,9.47553171 L175.372271,9.49740488 L175.372271,9.51872195 L175.372271,9.5619122 L175.372271,9.5836 L175.372271,9.6052878 L175.372271,9.64829268 L175.372271,9.66979512 L175.372271,9.71317073 L175.372271,9.73467317 L175.372271,9.75617561 L175.372271,9.79955122 L175.372271,9.82123902 L175.372271,9.84274146 L175.372271,9.88574634 L175.372271,9.90743415 L175.372271,9.95062439 L175.372271,9.97212683 L175.372271,9.99362927 L175.372271,10.0370049 L175.372271,10.0585073 L175.372271,10.1015122 L175.372271,10.1233854 L175.372271,10.1665756 L175.372271,10.188078 L175.372271,10.2312683 L175.372271,10.2529561 L175.372271,10.295961 L175.372271,10.3174634 L175.372271,10.3391512 L175.372271,10.3823415 L175.372271,10.4040293 L175.372271,10.4472195 L175.372271,10.468722 L175.372271,10.5119122 L175.372271,10.5336 L175.372271,10.5766049 L175.372271,10.6197951 L175.372271,10.6416683 L175.372271,10.6844878 L175.372271,10.7061756 L175.372271,10.7495512 L175.372271,10.7708683 L175.372271,10.8140585 L175.372271,10.8357463 L175.372271,10.8789366 L175.372271,10.900439 L175.372271,10.9436293 L175.372271,10.9870049 L175.372271,11.008322 L175.372271,11.0515122 L175.372271,11.0732 L175.372271,11.1162049 L175.372271,11.1593951 L175.372271,11.1812683 L175.372271,11.2244585 L175.372271,11.2457756 L175.372271,11.2891512 L175.372271,11.3323415 L175.372271,11.3536585 L175.372271,11.3970341 L175.372271,11.4402244 L175.372271,11.4615415 L175.372271,11.5049171 L175.372271,11.5481073 L175.372271,11.5697951 L175.372271,11.6129854 L175.372271,11.6559902 L175.372271,11.677678 L175.372271,11.7208683 L175.372271,11.7640585 L175.372271,11.785561 L175.372271,11.8287512 L175.372271,11.8719415 L175.372271,11.8934439 L175.372271,11.9366341 L175.372271,11.9798244 L175.372271,12.0015122 L175.372271,12.0445171 L175.372271,12.0877073 L175.372271,12.1310829 L175.372271,12.1525854 L175.372271,12.1957756 L175.372271,12.2389659 L175.372271,12.2819707 L175.372271,12.3036585 L175.372271,12.3470341 L175.372271,12.390039 L175.372271,12.4332293 L175.372271,12.4549171 L175.372271,12.497922 L175.372271,12.5412976 L175.372271,12.5844878 L175.372271,12.6273073 L175.372271,12.6491805 L175.372271,12.6923707 L175.372271,12.7353756 L175.372271,12.7787512 L175.372271,12.8217561 L175.372271,12.8432585 L175.372271,12.8866341 L175.372271,12.9298244 L175.372271,12.9730146 L175.372271,13.0160195 L175.372271,13.0592098 L175.372271,13.0808976 L175.372271,13.1240878 L175.372271,13.167278 L175.372271,13.2102829 L175.372271,13.2534732 L175.372271,13.2968488 L175.372271,13.4694244 C176.033919,13.9877073 176.86121,14.2466634 177.85396,14.2466634 C178.889511,14.2466634 179.720508,13.8690732 180.346396,13.1131512 C180.971914,12.3576 181.284673,11.3898049 181.284673,10.2095805 C181.284673,9.05827317 180.989887,8.11920976 180.400129,7.39239024 C179.810185,6.66557073 179.019209,6.30206829 178.026459,6.30206829 C177.062614,6.30206829 176.178069,6.66927805 175.372271,7.40332683 L175.372271,7.42482927 Z M178.242315,5.07179512 C179.565796,5.07179512 180.633771,5.54651707 181.446611,6.49651707 C182.259451,7.44633171 182.665778,8.67697561 182.665778,10.188078 C182.665778,11.7280976 182.209053,12.9908098 181.295605,13.9769561 C180.382156,14.9625463 179.213201,15.4556195 177.789111,15.4556195 C176.911607,15.4556195 176.106179,15.2828585 175.372271,14.9373366 L175.372271,20.204878 L174.034522,20.204878 L174.034522,5.24418537 L175.372271,4.96372683 L175.372271,6.28056585 C176.235322,5.47459512 177.192127,5.07179512 178.242315,5.07179512 Z" id="Fill-37"></path>
                        <path d="M191.426454,9.1950361 C191.44072,9.12311415 191.447947,8.97908488 191.447947,8.76331902 C191.447947,7.98626537 191.243023,7.36732878 190.83299,6.90669463 C190.422957,6.44606049 189.836905,6.2158361 189.074277,6.2158361 C188.225678,6.2158361 187.520673,6.50018732 186.959634,7.06851902 C186.398595,7.63722146 186.060638,8.35291902 185.945577,9.21653854 L191.426454,9.1950361 Z M185.859049,10.3823044 C185.887768,11.50488 186.215165,12.422441 186.841053,13.134802 C187.466571,13.8473483 188.290157,14.2034361 189.311626,14.2034361 C190.390533,14.2034361 191.347338,13.9300215 192.181485,13.3831922 L192.440697,14.6134654 C191.534289,15.1749385 190.476875,15.4555824 189.268455,15.4555824 C187.858631,15.4555824 186.71154,14.9769678 185.82681,14.0199239 C184.941895,13.06288 184.499623,11.8287141 184.499623,10.3176117 C184.499623,8.76331902 184.941895,7.48967024 185.82681,6.49648 C186.71154,5.50347512 187.822686,5.00688 189.160619,5.00688 C190.253978,5.00688 191.127962,5.33794341 191.782384,6.00007024 C192.436991,6.66201171 192.764202,7.54713366 192.764202,8.6554361 C192.764202,9.23099707 192.692312,9.75613854 192.548532,10.2312312 L185.859049,10.2744215 L185.859049,10.3823044 Z" id="Fill-39"></path>
                        <path d="M196.626162,15.1748829 L195.288044,15.1748829 L195.288044,5.28746829 L196.626162,5.00682439 L196.626162,7.12259024 C197.345248,5.7119561 198.31632,5.00682439 199.539193,5.00682439 C200.157855,5.00682439 200.733161,5.15789756 201.265666,5.46041463 L200.920482,6.71256098 C200.4456,6.42450244 199.941999,6.28065854 199.409679,6.28065854 C198.302053,6.28065854 197.374153,7.12981951 196.626162,8.8279561 L196.626162,15.1748829 Z" id="Fill-41"></path>
                        <path d="M207.889558,14.6352644 C207.213643,15.1820937 206.371899,15.4556937 205.364882,15.4556937 C204.127743,15.4556937 203.048836,15.1604059 202.127976,14.5703863 L202.495023,13.3399278 C203.401246,13.9444059 204.372503,14.2465522 205.408053,14.2465522 C206.02653,14.2465522 206.55181,14.099001 206.983335,13.8040839 C207.414861,13.5091668 207.630716,13.1022888 207.630716,12.584562 C207.630716,12.3539668 207.576799,12.1454302 207.468779,11.9583961 C207.360943,11.7711766 207.249588,11.6236254 207.134527,11.5157424 C207.019466,11.4078595 206.817877,11.28904 206.530131,11.1594693 C206.242386,11.0300839 206.033756,10.9437034 205.904243,10.9005132 C205.774915,10.8573229 205.5233,10.7779863 205.149212,10.6628741 C204.285975,10.4041034 203.591903,10.0658107 203.066809,9.64836683 C202.5419,9.23110829 202.279353,8.63367415 202.279353,7.85662049 C202.279353,6.97854244 202.595632,6.28416195 203.228747,5.77329366 C203.861676,5.26242537 204.659878,5.00680585 205.623909,5.00680585 C206.674097,5.00680585 207.673888,5.25148878 208.623281,5.74085463 L208.234741,6.94981073 C207.342971,6.46044488 206.443789,6.21576195 205.537752,6.21576195 C204.933357,6.21576195 204.451434,6.34904 204.091798,6.61504 C203.732162,6.88141073 203.552437,7.25214244 203.552437,7.72686439 C203.552437,7.94281561 203.602649,8.14078634 203.703258,8.32077659 C203.804052,8.50058146 203.912073,8.64461073 204.027134,8.75249366 C204.142195,8.86037659 204.332852,8.97178146 204.59892,9.08689366 C204.864987,9.20219122 205.077137,9.28838634 205.235554,9.34622049 C205.393601,9.40349854 205.645402,9.48283512 205.990585,9.58367415 C206.882541,9.84281561 207.591066,10.1844449 208.11616,10.6089327 C208.641254,11.0334205 208.903801,11.6560644 208.903801,12.4764937 C208.903801,13.3686595 208.565658,14.0884351 207.889558,14.6352644" id="Fill-43"></path>
                    </g>
                </g>
            </g>
        </g>
    </g>
</svg>